<?xml version="1.0" encoding="utf-8"?>
<svg viewBox="0 0 122.6429 37.33" xmlns="http://www.w3.org/2000/svg">
    <defs>
        <clipPath id="clip0_304_23693">
            <rect width="24" height="24" fill="white" />
        </clipPath>
    </defs>
    <path style="stroke-width: 0px; stroke: #000; fill: #ed1e79;"
        d="M 8 0 H 29.33 A 8 8 0 0 1 37.33 8 V 37.33 H 8 A 8 8 0 0 1 0 29.33 V 8 A 8 8 0 0 1 8 0 Z" />
    <text
        style="fill: #fefefe; font-family: 'Lexend Deca'; font-size: 13.8px; font-weight: 900; text-transform: uppercase; white-space: pre;"
        transform="matrix(1, 0, 0, 1, -73.58162689208984, -110.46453094482422)">
        <tspan x="80.811" y="127.301" dy="1em">​</tspan>
    </text>
    <path
        d="M 138.259 117.28 L 138.259 120.407 L 137.687 120.407 L 136.327 118.439 L 136.304 118.439 L 136.304 120.407 L 135.643 120.407 L 135.643 117.28 L 136.223 117.28 L 137.573 119.246 L 137.6 119.246 L 137.6 117.28 Z"
        transform="matrix(2.979357, 0, 0, 2.979357, -357.50766, -341.154846)"
        style="fill: #fefefe; stroke: #fefefe; stroke-width: 0.167821px; text-transform: uppercase;" />
    <path
        d="M 141.677 118.843 Q 141.677 119.355 141.483 119.714 Q 141.29 120.073 140.958 120.261 Q 140.626 120.45 140.212 120.45 Q 139.795 120.45 139.464 120.26 Q 139.133 120.071 138.94 119.712 Q 138.748 119.353 138.748 118.843 Q 138.748 118.332 138.94 117.973 Q 139.133 117.614 139.464 117.426 Q 139.795 117.237 140.212 117.237 Q 140.626 117.237 140.958 117.426 Q 141.29 117.614 141.483 117.973 Q 141.677 118.332 141.677 118.843 Z M 141.006 118.843 Q 141.006 118.512 140.908 118.284 Q 140.809 118.057 140.631 117.939 Q 140.452 117.822 140.212 117.822 Q 139.972 117.822 139.794 117.939 Q 139.615 118.057 139.517 118.284 Q 139.418 118.512 139.418 118.843 Q 139.418 119.175 139.517 119.402 Q 139.615 119.63 139.794 119.747 Q 139.972 119.865 140.212 119.865 Q 140.452 119.865 140.631 119.747 Q 140.809 119.63 140.908 119.402 Q 141.006 119.175 141.006 118.843 Z"
        transform="matrix(2.979357, 0, 0, 2.979357, -357.50766, -341.154846)"
        style="fill: #fefefe; stroke: #fefefe; stroke-width: 0.167821px; text-transform: uppercase;" />
    <path
        d="M 142.165 120.407 L 142.165 117.28 L 143.398 117.28 Q 143.753 117.28 144.004 117.406 Q 144.255 117.532 144.387 117.761 Q 144.519 117.991 144.519 118.301 Q 144.519 118.613 144.385 118.836 Q 144.25 119.06 143.996 119.179 Q 143.742 119.298 143.382 119.298 L 142.555 119.298 L 142.555 118.767 L 143.275 118.767 Q 143.464 118.767 143.589 118.715 Q 143.714 118.663 143.776 118.559 Q 143.838 118.456 143.838 118.301 Q 143.838 118.146 143.776 118.039 Q 143.714 117.932 143.588 117.876 Q 143.463 117.82 143.272 117.82 L 142.826 117.82 L 142.826 120.407 Z M 143.853 118.984 L 144.631 120.407 L 143.901 120.407 L 143.14 118.984 Z"
        transform="matrix(2.979357, 0, 0, 2.979357, -357.50766, -341.154846)"
        style="fill: #fefefe; stroke: #fefefe; stroke-width: 0.167821px; text-transform: uppercase;" />
    <path
        d="M 146.095 120.407 L 144.986 120.407 L 144.986 117.28 L 146.104 117.28 Q 146.576 117.28 146.916 117.467 Q 147.257 117.654 147.441 118.004 Q 147.625 118.353 147.625 118.84 Q 147.625 119.329 147.441 119.68 Q 147.257 120.031 146.914 120.219 Q 146.571 120.407 146.095 120.407 Z M 145.647 119.84 L 146.067 119.84 Q 146.361 119.84 146.561 119.736 Q 146.762 119.631 146.864 119.411 Q 146.965 119.19 146.965 118.84 Q 146.965 118.494 146.864 118.274 Q 146.762 118.054 146.562 117.95 Q 146.362 117.846 146.069 117.846 L 145.647 117.846 Z"
        transform="matrix(2.979357, 0, 0, 2.979357, -357.50766, -341.154846)"
        style="fill: #fefefe; stroke: #fefefe; stroke-width: 0.167821px; text-transform: uppercase;" />
    <path
        d="M 150.874 118.375 L 150.205 118.375 Q 150.187 118.245 150.13 118.143 Q 150.074 118.042 149.985 117.97 Q 149.897 117.898 149.781 117.86 Q 149.666 117.822 149.532 117.822 Q 149.289 117.822 149.109 117.942 Q 148.929 118.062 148.829 118.29 Q 148.73 118.518 148.73 118.843 Q 148.73 119.178 148.83 119.405 Q 148.93 119.633 149.11 119.749 Q 149.29 119.865 149.527 119.865 Q 149.66 119.865 149.774 119.83 Q 149.888 119.795 149.976 119.727 Q 150.065 119.659 150.123 119.561 Q 150.182 119.463 150.205 119.338 L 150.874 119.341 Q 150.848 119.556 150.745 119.756 Q 150.642 119.955 150.469 120.112 Q 150.295 120.268 150.056 120.359 Q 149.817 120.45 149.516 120.45 Q 149.098 120.45 148.769 120.26 Q 148.44 120.071 148.25 119.712 Q 148.06 119.353 148.06 118.843 Q 148.06 118.332 148.252 117.973 Q 148.444 117.614 148.774 117.426 Q 149.104 117.237 149.516 117.237 Q 149.788 117.237 150.021 117.313 Q 150.254 117.39 150.434 117.536 Q 150.614 117.681 150.728 117.892 Q 150.842 118.103 150.874 118.375 Z"
        transform="matrix(2.979357, 0, 0, 2.979357, -357.50766, -341.154846)"
        style="fill: #fefefe; stroke: #fefefe; stroke-width: 0.167821px; text-transform: uppercase;" />
    <path
        d="M 154.222 118.843 Q 154.222 119.355 154.029 119.714 Q 153.835 120.073 153.503 120.261 Q 153.171 120.45 152.757 120.45 Q 152.341 120.45 152.009 120.26 Q 151.678 120.071 151.485 119.712 Q 151.293 119.353 151.293 118.843 Q 151.293 118.332 151.485 117.973 Q 151.678 117.614 152.009 117.426 Q 152.341 117.237 152.757 117.237 Q 153.171 117.237 153.503 117.426 Q 153.835 117.614 154.029 117.973 Q 154.222 118.332 154.222 118.843 Z M 153.551 118.843 Q 153.551 118.512 153.453 118.284 Q 153.354 118.057 153.176 117.939 Q 152.997 117.822 152.757 117.822 Q 152.518 117.822 152.339 117.939 Q 152.16 118.057 152.062 118.284 Q 151.963 118.512 151.963 118.843 Q 151.963 119.175 152.062 119.402 Q 152.16 119.63 152.339 119.747 Q 152.518 119.865 152.757 119.865 Q 152.997 119.865 153.176 119.747 Q 153.354 119.63 153.453 119.402 Q 153.551 119.175 153.551 118.843 Z"
        transform="matrix(2.979357, 0, 0, 2.979357, -357.50766, -341.154846)"
        style="fill: #fefefe; stroke: #fefefe; stroke-width: 0.167821px; text-transform: uppercase;" />
    <path
        d="M 154.71 117.28 L 155.525 117.28 L 156.386 119.381 L 156.423 119.381 L 157.284 117.28 L 158.1 117.28 L 158.1 120.407 L 157.458 120.407 L 157.458 118.372 L 157.432 118.372 L 156.623 120.392 L 156.186 120.392 L 155.377 118.364 L 155.351 118.364 L 155.351 120.407 L 154.71 120.407 Z"
        transform="matrix(2.979357, 0, 0, 2.979357, -357.50766, -341.154846)"
        style="fill: #fefefe; stroke: #fefefe; stroke-width: 0.167821px; text-transform: uppercase;" />
    <path
        d="M 138.402 122.675 L 137.733 122.675 Q 137.715 122.545 137.658 122.443 Q 137.602 122.342 137.513 122.27 Q 137.425 122.198 137.31 122.16 Q 137.194 122.122 137.06 122.122 Q 136.817 122.122 136.637 122.242 Q 136.457 122.362 136.357 122.59 Q 136.258 122.818 136.258 123.143 Q 136.258 123.478 136.358 123.705 Q 136.458 123.933 136.638 124.049 Q 136.819 124.165 137.055 124.165 Q 137.188 124.165 137.302 124.13 Q 137.416 124.095 137.504 124.027 Q 137.593 123.959 137.652 123.861 Q 137.71 123.763 137.733 123.638 L 138.402 123.641 Q 138.376 123.856 138.273 124.056 Q 138.17 124.255 137.997 124.412 Q 137.823 124.568 137.584 124.659 Q 137.345 124.75 137.045 124.75 Q 136.626 124.75 136.297 124.56 Q 135.968 124.371 135.778 124.012 Q 135.588 123.653 135.588 123.143 Q 135.588 122.632 135.78 122.273 Q 135.973 121.914 136.302 121.726 Q 136.632 121.537 137.045 121.537 Q 137.316 121.537 137.549 121.613 Q 137.782 121.69 137.962 121.835 Q 138.142 121.981 138.256 122.192 Q 138.37 122.403 138.402 122.675 Z"
        transform="matrix(2.979357, 0, 0, 2.979357, -357.50766, -341.154846)"
        style="fill: #fefefe; stroke: #fefefe; stroke-width: 0.167821px; text-transform: uppercase;" />
    <path
        d="M 141.75 123.143 Q 141.75 123.655 141.557 124.014 Q 141.364 124.373 141.032 124.561 Q 140.699 124.75 140.286 124.75 Q 139.869 124.75 139.537 124.56 Q 139.206 124.371 139.014 124.012 Q 138.821 123.653 138.821 123.143 Q 138.821 122.632 139.014 122.273 Q 139.206 121.914 139.537 121.726 Q 139.869 121.537 140.286 121.537 Q 140.699 121.537 141.032 121.726 Q 141.364 121.914 141.557 122.273 Q 141.75 122.632 141.75 123.143 Z M 141.08 123.143 Q 141.08 122.812 140.981 122.584 Q 140.883 122.357 140.704 122.239 Q 140.525 122.122 140.286 122.122 Q 140.046 122.122 139.867 122.239 Q 139.689 122.357 139.59 122.584 Q 139.492 122.812 139.492 123.143 Q 139.492 123.475 139.59 123.702 Q 139.689 123.93 139.867 124.047 Q 140.046 124.165 140.286 124.165 Q 140.525 124.165 140.704 124.047 Q 140.883 123.93 140.981 123.702 Q 141.08 123.475 141.08 123.143 Z"
        transform="matrix(2.979357, 0, 0, 2.979357, -357.50766, -341.154846)"
        style="fill: #fefefe; stroke: #fefefe; stroke-width: 0.167821px; text-transform: uppercase;" />
    <path
        d="M 142.238 121.58 L 143.053 121.58 L 143.915 123.681 L 143.951 123.681 L 144.813 121.58 L 145.628 121.58 L 145.628 124.707 L 144.987 124.707 L 144.987 122.672 L 144.961 122.672 L 144.151 124.692 L 143.715 124.692 L 142.905 122.664 L 142.879 122.664 L 142.879 124.707 L 142.238 124.707 Z"
        transform="matrix(2.979357, 0, 0, 2.979357, -357.50766, -341.154846)"
        style="fill: #fefefe; stroke: #fefefe; stroke-width: 0.167821px; text-transform: uppercase;" />
    <path
        d="M 146.172 121.58 L 146.987 121.58 L 147.848 123.681 L 147.885 123.681 L 148.746 121.58 L 149.561 121.58 L 149.561 124.707 L 148.92 124.707 L 148.92 122.672 L 148.894 122.672 L 148.085 124.692 L 147.648 124.692 L 146.839 122.664 L 146.813 122.664 L 146.813 124.707 L 146.172 124.707 Z"
        transform="matrix(2.979357, 0, 0, 2.979357, -357.50766, -341.154846)"
        style="fill: #fefefe; stroke: #fefefe; stroke-width: 0.167821px; text-transform: uppercase;" />
    <path
        d="M 150.105 124.707 L 150.105 121.58 L 152.212 121.58 L 152.212 122.125 L 150.766 122.125 L 150.766 122.87 L 152.104 122.87 L 152.104 123.415 L 150.766 123.415 L 150.766 124.162 L 152.218 124.162 L 152.218 124.707 Z"
        transform="matrix(2.979357, 0, 0, 2.979357, -357.50766, -341.154846)"
        style="fill: #fefefe; stroke: #fefefe; stroke-width: 0.167821px; text-transform: uppercase;" />
    <path
        d="M 152.738 124.707 L 152.738 121.58 L 153.972 121.58 Q 154.326 121.58 154.577 121.706 Q 154.828 121.832 154.96 122.061 Q 155.092 122.291 155.092 122.601 Q 155.092 122.913 154.958 123.136 Q 154.824 123.36 154.569 123.479 Q 154.315 123.598 153.955 123.598 L 153.129 123.598 L 153.129 123.067 L 153.848 123.067 Q 154.037 123.067 154.163 123.015 Q 154.288 122.963 154.35 122.859 Q 154.411 122.756 154.411 122.601 Q 154.411 122.446 154.35 122.339 Q 154.288 122.232 154.162 122.176 Q 154.036 122.12 153.845 122.12 L 153.399 122.12 L 153.399 124.707 Z M 154.427 123.284 L 155.204 124.707 L 154.474 124.707 L 153.714 123.284 Z"
        transform="matrix(2.979357, 0, 0, 2.979357, -357.50766, -341.154846)"
        style="fill: #fefefe; stroke: #fefefe; stroke-width: 0.167821px; text-transform: uppercase;" />
    <path
        d="M 158.319 122.675 L 157.65 122.675 Q 157.632 122.545 157.575 122.443 Q 157.519 122.342 157.43 122.27 Q 157.341 122.198 157.226 122.16 Q 157.111 122.122 156.977 122.122 Q 156.734 122.122 156.554 122.242 Q 156.373 122.362 156.274 122.59 Q 156.175 122.818 156.175 123.143 Q 156.175 123.478 156.275 123.705 Q 156.375 123.933 156.555 124.049 Q 156.735 124.165 156.972 124.165 Q 157.105 124.165 157.219 124.13 Q 157.332 124.095 157.421 124.027 Q 157.509 123.959 157.568 123.861 Q 157.627 123.763 157.65 123.638 L 158.319 123.641 Q 158.293 123.856 158.19 124.056 Q 158.087 124.255 157.913 124.412 Q 157.74 124.568 157.501 124.659 Q 157.262 124.75 156.961 124.75 Q 156.543 124.75 156.214 124.56 Q 155.885 124.371 155.695 124.012 Q 155.505 123.653 155.505 123.143 Q 155.505 122.632 155.697 122.273 Q 155.889 121.914 156.219 121.726 Q 156.549 121.537 156.961 121.537 Q 157.233 121.537 157.466 121.613 Q 157.699 121.69 157.879 121.835 Q 158.059 121.981 158.173 122.192 Q 158.287 122.403 158.319 122.675 Z"
        transform="matrix(2.979357, 0, 0, 2.979357, -357.50766, -341.154846)"
        style="fill: #fefefe; stroke: #fefefe; stroke-width: 0.167821px; text-transform: uppercase;" />
    <path
        d="M 158.793 124.707 L 158.793 121.58 L 160.9 121.58 L 160.9 122.125 L 159.454 122.125 L 159.454 122.87 L 160.792 122.87 L 160.792 123.415 L 159.454 123.415 L 159.454 124.162 L 160.906 124.162 L 160.906 124.707 Z"
        transform="matrix(2.979357, 0, 0, 2.979357, -357.50766, -341.154846)"
        style="fill: #fefefe; stroke: #fefefe; stroke-width: 0.167821px; text-transform: uppercase;" />
    <g clip-path="url(#clip0_304_23693)" transform="matrix(1, 0, 0, 1, 6.6185150146484375, 6.52780294418335)">
        <path
            d="M5.61528 8.59201C5.6929 8.10688 6.11142 7.75 6.60272 7.75H17.3973C17.8886 7.75 18.3071 8.10688 18.3847 8.59201L20.0647 19.092C20.1619 19.6996 19.6926 20.25 19.0773 20.25H4.92272C4.30741 20.25 3.83807 19.6996 3.93528 19.092L5.61528 8.59201Z"
            style="fill: none; stroke: #fefefe; stroke-linecap: round; stroke-linejoin: bevel; paint-order: stroke; stroke-width: 2.5px;" />
        <path d="M8.75 12.25V6C8.75 4.21 10.21 2.75 12 2.75C13.79 2.75 15.25 4.21 15.25 6V12.25"
            style="fill: none; stroke: #fefefe; stroke-linecap: round; stroke-linejoin: bevel; paint-order: stroke; stroke-width: 2.5px;" />
    </g>
</svg>
