<svg id="Lager_1" 
    xmlns="http://www.w3.org/2000/svg" viewBox="0 0 258.2 381.6">
    <style>.st0{fill:#4a4a4a}</style>
    <path class="st0" d="M193 53.4v314c0 .5-.2 1-.4 1.4-.6.8-6.4 8.3-30.1 10.8-18.2 1.9-32.8 1.9-32.9 1.9-6.4 0-14.4 0-32.8-1.9-23.7-2.5-29.5-9.9-30.1-10.8-.3-.4-.4-.9-.4-1.4v-315c0-.5.1-1 .4-1.4.6-.8 6.4-8.3 30.1-10.7 18.2-1.9 32.8-1.9 32.9-1.9 6.4 0 14.4 0 32.8 1.9 23.7 2.5 29.5 9.9 30.1 10.8.3.4.4.9.4 1.4v.9z"/>
    <path class="st0" d="M258.2 17.3v311.8c0 .5-.2 1-.5 1.4-.2.3-6 8.2-30.1 10.7-4.7.5-9.1.9-13.4 1.2V37.9c0-.7-.2-1.3-.6-1.9-.2-.3-2.3-3.1-8.3-6.1-7.8-4-18.6-8.7-32-10.1-14-1.4-23.4-2.1-30.6-2.3V6c6.7-2.5 14.4-3.6 19.2-4.1C180.2 0 194.7 0 194.9 0c6.4 0 14.4 0 32.8 1.9 10 1.1 18 3.1 23.9 6.1 4.5 2.3 6.1 4.4 6.2 4.6l.4 4.7z"/>
    <path class="st0" d="M258.2 14.1v3.2l-.5-4.7c.3.5.5 1 .5 1.5zM116.1 6.3v11.2c-7.2.2-16.9.9-31.3 2.4-13.4 1.4-24.1 6.1-32 10.1-6 3-8.1 5.8-8.3 6.1-.4.6-.6 1.2-.6 1.9v304.6c-4.2-.3-8.7-.7-13.4-1.2C6.4 338.9.6 331 .4 330.7c-.3-.4-.5-.9-.5-1.4v-312l.5-4.7c.2-.2 1.7-2.3 6.2-4.6 5.8-3 13.9-5 23.9-6.1C48.9 0 56.9 0 63.3 0c.1 0 14.7 0 32.9 1.9 5 .6 13 1.8 19.9 4.4z"/>
    <path class="st0" d="M0 14.1v3.2l.5-4.7c-.3.5-.5 1-.5 1.5z"/>
</svg>