<?xml version="1.0" encoding="utf-8"?>
<!-- Generator: Adobe Illustrator 23.0.2, SVG Export Plug-In . SVG Version: 6.00 Build 0)  -->
<svg version="1.1" xmlns="http://www.w3.org/2000/svg" xmlns:xlink="http://www.w3.org/1999/xlink" x="0px" y="0px"
	 viewBox="0 0 387.4 417.5" style="enable-background:new 0 0 387.4 417.5;" xml:space="preserve">
<style type="text/css">
	.st0{fill:#4A4A4A;}
</style>
<g id="Layer_1">
	<path class="st0" d="M387,12.7c-0.2-0.2-1.7-2.3-6.2-4.6c-5.8-3-13.9-5-23.9-6.1C338.5,0,330.5,0,324.1,0c-0.1,0-14.7,0-32.9,1.9
		c-6.5,0.6-13,2-19.2,4.1v11.5c7.2,0.3,16.6,0.9,30.6,2.3c13.4,1.4,24.1,6.1,32,10.1c6,3,8.1,5.8,8.3,6.1c0.4,0.5,0.6,1.2,0.6,1.9
		v304.6c4.2-0.3,8.7-0.7,13.4-1.2c24.1-2.5,29.8-10.4,30.1-10.7c0.3-0.4,0.5-0.9,0.5-1.4V14.1C387.4,13.6,387.3,13.1,387,12.7z
		 M115.4,17.5V6c-6.2-2.1-12.7-3.5-19.2-4.1C78,0,63.4,0,63.3,0c-6.4,0-14.4,0-32.8,1.9C20.5,3,12.5,5,6.7,8
		c-4.5,2.3-6.1,4.4-6.2,4.7C0.2,13.1,0,13.6,0,14.1v315.1c0,0.5,0.2,1,0.4,1.4c0.2,0.3,6,8.2,30.1,10.7c4.7,0.5,9.1,0.9,13.4,1.2
		V37.9c0-0.7,0.2-1.3,0.6-1.9c0.2-0.3,2.3-3.1,8.3-6.1c7.8-4,18.6-8.7,32-10.1C98.8,18.4,108.2,17.8,115.4,17.5z M193.2,27.7
		c8.5-4,17.7-6.6,27.1-7.7c14-1.4,23.4-2.1,30.6-2.3V6.1C244.7,4,238.2,2.6,231.7,2c-18.2-1.9-32.8-1.9-32.9-1.9h-11.2
		c-0.1,0-14.7,0-32.9,1.9c-6.6,0.6-13,2-19.2,4.1v11.5c7.2,0.3,16.6,0.9,30.6,2.3C175.5,21,184.7,23.6,193.2,27.7L193.2,27.7z"/>
</g>
<g id="Layer_3">
	<path class="st0" d="M257.7,86.6v314c0,0.5-0.2,1-0.4,1.4c-0.6,0.8-6.4,8.3-30.1,10.8c-18.2,1.9-32.8,1.9-32.9,1.9
		c-6.4,0-14.4,0-32.8-1.9c-23.7-2.5-29.5-9.9-30.1-10.8c-0.3-0.4-0.4-0.9-0.4-1.4v-315c0-0.5,0.1-1,0.4-1.4
		c0.6-0.8,6.4-8.3,30.1-10.7c18.2-1.9,32.8-1.9,32.9-1.9c6.4,0,14.4,0,32.8,1.9c23.7,2.5,29.5,9.9,30.1,10.8
		c0.3,0.4,0.4,0.9,0.4,1.4V86.6L257.7,86.6z"/>
	<path class="st0" d="M322.9,50.6v311.8c0,0.5-0.2,1-0.5,1.4c-0.2,0.3-6,8.2-30.1,10.7c-4.7,0.5-9.1,0.9-13.4,1.2V71.2
		c0-0.7-0.2-1.3-0.6-1.9c-0.2-0.3-2.3-3.1-8.3-6.1c-7.8-4-18.6-8.7-32-10.1c-14-1.4-23.4-2.1-30.6-2.3V39.3
		c6.7-2.5,14.4-3.6,19.2-4.1c18.3-1.9,32.8-1.9,33-1.9c6.4,0,14.4,0,32.8,1.9c10,1.1,18,3.1,23.9,6.1c4.5,2.3,6.1,4.4,6.2,4.6
		L322.9,50.6L322.9,50.6z"/>
	<path class="st0" d="M322.9,47.3v3.2l-0.5-4.7C322.7,46.3,322.9,46.8,322.9,47.3z M180.8,39.5v11.2c-7.2,0.2-16.9,0.9-31.3,2.4
		c-13.4,1.4-24.1,6.1-32,10.1c-6,3-8.1,5.8-8.3,6.1c-0.4,0.6-0.6,1.2-0.6,1.9v304.6c-4.2-0.3-8.7-0.7-13.4-1.2
		c-24.1-2.5-29.9-10.4-30.1-10.7c-0.3-0.4-0.5-0.9-0.5-1.4v-312l0.5-4.7c0.2-0.2,1.7-2.3,6.2-4.6c5.8-3,13.9-5,23.9-6.1
		c18.4-1.9,26.4-1.9,32.8-1.9c0.1,0,14.7,0,32.9,1.9C165.9,35.7,173.9,36.9,180.8,39.5z"/>
	<path class="st0" d="M64.7,47.3v3.2l0.5-4.7C64.9,46.3,64.7,46.8,64.7,47.3z"/>
</g>
</svg>
