<svg xmlns="http://www.w3.org/2000/svg" viewBox="0 0 180 88.64">
    <path fill="#4A4A4A" d="M180 68.68c0 6.09-8.48 11.4-26.25 15-15.88 3.2-41.36 5-63.75 5s-47.71-1.77-63.59-5C8.64 80.08 0 74.79 0 68.7c0 0 .12-36.08.11-36C.46 34 2.33 37.91 19 41.84c1.48.35 3.08.7 4.79 1 16.51 3.34 43 5.17 66.43 5.17s49.86-1.83 66.37-5.16h.06c17.26-3.47 21.9-7.24 23.22-9.22.01-.21.13 35.05.13 35.05z"/>
    <path fill="#4A4A4A" d="M179.9 19v-.12a1.93 1.93 0 0 0-.11-.34 9.79 9.79 0 0 0-3.21-4.4c-4-3.48-11.63-6.9-23-9.19-4.6-.93-10-1.73-15.88-2.41A438.41 438.41 0 0 0 90 0a438.41 438.41 0 0 0-47.71 2.55C36.41 3.23 31 4 26.41 5 13.08 7.65 4.9 11.91 1.66 16a8.27 8.27 0 0 0-1 1.47 5.85 5.85 0 0 0-.45 1.09.49.49 0 0 0 0 .11c.36 1.3 2.23 5.25 18.92 9.18 1.48.35 3.07.7 4.79 1 16.51 3.34 43 5.17 66.42 5.17s49.86-1.83 66.37-5.16h.06c17.23-3.45 21.9-7.22 23.23-9.2a3.19 3.19 0 0 0-.1-.66zM5 19.88a.29.29 0 0 1 0-.09v.09z"/>
</svg>