<svg data-name="Layer 1" 
    xmlns="http://www.w3.org/2000/svg" viewBox="0 0 271.7 343.24">
    <path d="M271.4 64.82c-.4-.57-4.3-5.56-20.22-7.22a183.27 183.27 0 0 0-22-1.29c-.09 0-9.89 0-22.11 1.29a68 68 0 0 0-7.2 1.12v-20.6a.83.83 0 0 0 0-.16v-.72a2.07 2.07 0 0 0-.38-1.21c-.5-.71-5.45-7-25.65-9.17a233.86 233.86 0 0 0-27.94-1.63c-.1 0-8.08 0-19.18.84v-11a1 1 0 0 0 0-.18v-.85a2.5 2.5 0 0 0-.44-1.41c-.6-.84-6.42-8.27-30.09-10.75C77.8 0 69.84 0 63.42 0c-.14 0-14.72 0-32.89 1.92C6.85 4.4 1 11.83.45 12.66A2.49 2.49 0 0 0 0 14.08v315.07a2.47 2.47 0 0 0 .45 1.42c.59.84 6.4 8.27 30.08 10.75 18.38 1.92 26.34 1.92 32.76 1.92.14 0 14.73 0 32.89-1.92 23.67-2.48 29.49-9.91 30.09-10.75a2.54 2.54 0 0 0 .44-1.42v-11.94c9.63.8 14.76.8 19.06.8.13 0 12.57 0 28.06-1.63 20.2-2.12 25.15-8.46 25.65-9.17a2.1 2.1 0 0 0 .38-1.22v-21.47a68 68 0 0 0 7.2 1.12 183.59 183.59 0 0 0 22 1.29c.1 0 9.89 0 22.1-1.29C267.1 284 271 279 271.4 278.42a1.6 1.6 0 0 0 .3-.95V65.77a1.58 1.58 0 0 0-.3-.95zM94.79 239.27H63.48V129.1H36.42V104h58.37zm81.56 2.32c-33.24 0-58-25.32-58-70s24.74-70 58-70c33.44 0 58 25.32 58 70s-24.56 70-58 70z" fill="#4a4a4a"/>
    <path d="M202.83 171.62c0 30.73-10.82 43.49-26.48 43.49-15.46 0-26.28-12.76-26.28-43.49s10.82-43.49 26.28-43.49c15.65 0 26.48 12.76 26.48 43.49z" fill="#4a4a4a"/>
</svg>