<svg xmlns="http://www.w3.org/2000/svg" viewBox="0 0 387.41 378.53">
    <path fill="#4A4A4A" d="M387 12.67c-.16-.23-1.71-2.33-6.22-4.64-5.84-3-13.87-5-23.86-6.1C338.51 0 330.53 0 324.13 0c-.15 0-14.69 0-32.91 1.93A83.65 83.65 0 0 0 272 6v11.53c7.16.27 16.64.9 30.6 2.34 13.38 1.39 24.14 6.1 32 10.06 6 3 8.11 5.82 8.33 6.12a3.33 3.33 0 0 1 .6 1.87v304.59c4.25-.29 8.69-.69 13.39-1.18 24.08-2.53 29.81-10.41 30.08-10.74a2.45 2.45 0 0 0 .45-1.43V14.09a2.52 2.52 0 0 0-.45-1.42zm-271.59 4.86V6a83.65 83.65 0 0 0-19.22-4.07C78 0 63.43 0 63.28 0c-6.4 0-14.38 0-32.75 1.93C20.54 3 12.51 5 6.67 8 2.16 10.34.61 12.44.45 12.67A2.52 2.52 0 0 0 0 14.09v315.07a2.45 2.45 0 0 0 .45 1.43c.23.33 6 8.21 30.08 10.74 4.7.49 9.14.89 13.39 1.18V37.93a3.33 3.33 0 0 1 .6-1.87c.22-.3 2.29-3.08 8.33-6.12 7.82-4 18.58-8.67 32-10.06 13.92-1.45 23.4-2.08 30.56-2.35zm77.8 10.16A85.76 85.76 0 0 1 220.3 20c14-1.44 23.44-2.07 30.62-2.34V6.14A83.79 83.79 0 0 0 231.68 2C213.48.12 198.92.1 198.79.1h-11.17c-.13 0-14.69 0-32.89 1.93a83.79 83.79 0 0 0-19.24 4.11v11.49c7.18.27 16.65.9 30.62 2.34a84.48 84.48 0 0 1 27.1 7.72z"/>
    <path fill="#4A4A4A" d="M182.28 48.72a2.21 2.21 0 0 0-.4-1.29c-.54-.77-5.87-7.57-27.55-9.84a263.26 263.26 0 0 0-31-1.76c-.14 0-14.5 0-31.14 1.76-21.69 2.27-27 9.07-27.56 9.83a2.34 2.34 0 0 0-.4 1.3v316.9a2.27 2.27 0 0 0 .4 1.3c.54.77 5.87 7.58 27.56 9.85a263.17 263.17 0 0 0 31 1.76c.13 0 14.49 0 31.14-1.76 21.68-2.27 27-9.08 27.55-9.85a2.2 2.2 0 0 0 .4-1.3V49.67a.94.94 0 0 0 0-.17zm140.16 0a2.29 2.29 0 0 0-.4-1.29c-.54-.77-5.87-7.57-27.56-9.84a263.17 263.17 0 0 0-31-1.76c-.14 0-14.49 0-31.14 1.76-21.68 2.27-27 9.07-27.55 9.83a2.27 2.27 0 0 0-.4 1.3v316.9a2.2 2.2 0 0 0 .4 1.3c.54.77 5.87 7.58 27.55 9.85a263.26 263.26 0 0 0 31 1.76c.14 0 14.5 0 31.14-1.76 21.69-2.27 27-9.08 27.56-9.85a2.27 2.27 0 0 0 .4-1.3V49.67a.94.94 0 0 0 0-.17z"/>
</svg>