<?xml version="1.0" encoding="utf-8"?>
<svg viewBox="0 0 122.6429 37.33" xmlns="http://www.w3.org/2000/svg">
    <defs>
        <clipPath id="clip0_304_23693">
            <rect width="24" height="24" fill="white" />
        </clipPath>
    </defs>
    <path style="stroke-width: 0px; stroke: rgb(0, 0, 0); fill: rgb(237, 30, 121);"
        d="M 6.865 2.648 L 25.169 2.648 C 28.961 2.648 32.035 5.721 32.035 9.513 L 32.035 34.682 L 6.865 34.682 C 3.074 34.682 0 31.609 0 27.817 L 0 9.513 C 0 5.721 3.074 2.648 6.865 2.648 Z" />
    <text
        style="fill: #fefefe; font-family: 'Lexend Deca'; font-size: 13.8px; font-weight: 900; text-transform: uppercase; white-space: pre;"
        transform="matrix(1, 0, 0, 1, -73.58162689208984, -110.46453094482422)">
        <tspan x="80.811" y="127.301" dy="1em">​</tspan>
    </text>
    <g clip-path="url(#clip0_304_23693)"
        transform="matrix(0.8581460714340211, 0, 0, 0.8581460714340211, 5.679647922515869, 8.249515533447266)">
        <path
            d="M5.61528 8.59201C5.6929 8.10688 6.11142 7.75 6.60272 7.75H17.3973C17.8886 7.75 18.3071 8.10688 18.3847 8.59201L20.0647 19.092C20.1619 19.6996 19.6926 20.25 19.0773 20.25H4.92272C4.30741 20.25 3.83807 19.6996 3.93528 19.092L5.61528 8.59201Z"
            style="fill: none; stroke: rgb(254, 254, 254); stroke-linecap: round; stroke-linejoin: bevel; paint-order: stroke; stroke-width: 1.74795px;" />
        <path d="M8.75 12.25V6C8.75 4.21 10.21 2.75 12 2.75C13.79 2.75 15.25 4.21 15.25 6V12.25"
            style="fill: none; stroke: rgb(254, 254, 254); stroke-linecap: round; stroke-linejoin: bevel; paint-order: stroke; stroke-width: 1.74795px;" />
    </g>
    <path
        d="M 51.475 11.903 L 51.475 2.103 L 53.757 2.103 L 59.161 8.627 L 58.083 8.627 L 58.083 2.103 L 60.799 2.103 L 60.799 11.903 L 58.517 11.903 L 53.113 5.379 L 54.191 5.379 L 54.191 11.903 Z M 67.701 12.099 Q 66.525 12.099 65.531 11.721 Q 64.537 11.343 63.802 10.65 Q 63.067 9.957 62.661 9.033 Q 62.255 8.109 62.255 7.003 Q 62.255 5.897 62.661 4.973 Q 63.067 4.049 63.802 3.356 Q 64.537 2.663 65.531 2.285 Q 66.525 1.907 67.701 1.907 Q 68.891 1.907 69.878 2.285 Q 70.865 2.663 71.593 3.356 Q 72.321 4.049 72.734 4.973 Q 73.147 5.897 73.147 7.003 Q 73.147 8.109 72.734 9.04 Q 72.321 9.971 71.593 10.657 Q 70.865 11.343 69.878 11.721 Q 68.891 12.099 67.701 12.099 Z M 67.701 9.803 Q 68.261 9.803 68.744 9.607 Q 69.227 9.411 69.584 9.04 Q 69.941 8.669 70.144 8.151 Q 70.347 7.633 70.347 7.003 Q 70.347 6.359 70.144 5.848 Q 69.941 5.337 69.584 4.966 Q 69.227 4.595 68.744 4.399 Q 68.261 4.203 67.701 4.203 Q 67.141 4.203 66.658 4.399 Q 66.175 4.595 65.818 4.966 Q 65.461 5.337 65.258 5.848 Q 65.055 6.359 65.055 7.003 Q 65.055 7.633 65.258 8.151 Q 65.461 8.669 65.818 9.04 Q 66.175 9.411 66.658 9.607 Q 67.141 9.803 67.701 9.803 Z M 74.603 11.903 L 74.603 2.103 L 79.083 2.103 Q 80.427 2.103 81.4 2.537 Q 82.373 2.971 82.905 3.79 Q 83.437 4.609 83.437 5.729 Q 83.437 6.835 82.905 7.64 Q 82.373 8.445 81.4 8.872 Q 80.427 9.299 79.083 9.299 L 76.143 9.299 L 77.375 8.137 L 77.375 11.903 Z M 80.665 11.903 L 78.229 8.333 L 81.183 8.333 L 83.633 11.903 Z M 77.375 8.431 L 76.143 7.157 L 78.915 7.157 Q 79.783 7.157 80.21 6.779 Q 80.637 6.401 80.637 5.729 Q 80.637 5.043 80.21 4.665 Q 79.783 4.287 78.915 4.287 L 76.143 4.287 L 77.375 3.013 Z M 84.962 11.903 L 84.962 2.103 L 89.596 2.103 Q 91.22 2.103 92.452 2.705 Q 93.684 3.307 94.377 4.399 Q 95.07 5.491 95.07 7.003 Q 95.07 8.501 94.377 9.6 Q 93.684 10.699 92.452 11.301 Q 91.22 11.903 89.596 11.903 Z M 87.734 9.691 L 89.484 9.691 Q 90.324 9.691 90.947 9.376 Q 91.57 9.061 91.92 8.452 Q 92.27 7.843 92.27 7.003 Q 92.27 6.149 91.92 5.547 Q 91.57 4.945 90.947 4.63 Q 90.324 4.315 89.484 4.315 L 87.734 4.315 Z M 101.413 12.099 Q 100.251 12.099 99.264 11.728 Q 98.277 11.357 97.556 10.671 Q 96.835 9.985 96.429 9.054 Q 96.023 8.123 96.023 7.003 Q 96.023 5.883 96.429 4.952 Q 96.835 4.021 97.556 3.335 Q 98.277 2.649 99.264 2.278 Q 100.251 1.907 101.413 1.907 Q 102.771 1.907 103.842 2.383 Q 104.913 2.859 105.627 3.755 L 103.863 5.351 Q 103.387 4.791 102.82 4.497 Q 102.253 4.203 101.553 4.203 Q 100.951 4.203 100.447 4.399 Q 99.943 4.595 99.586 4.966 Q 99.229 5.337 99.026 5.855 Q 98.823 6.373 98.823 7.003 Q 98.823 7.633 99.026 8.151 Q 99.229 8.669 99.586 9.04 Q 99.943 9.411 100.447 9.607 Q 100.951 9.803 101.553 9.803 Q 102.253 9.803 102.82 9.509 Q 103.387 9.215 103.863 8.655 L 105.627 10.251 Q 104.913 11.133 103.842 11.616 Q 102.771 12.099 101.413 12.099 Z M 111.59 12.099 Q 110.414 12.099 109.42 11.721 Q 108.426 11.343 107.691 10.65 Q 106.956 9.957 106.55 9.033 Q 106.144 8.109 106.144 7.003 Q 106.144 5.897 106.55 4.973 Q 106.956 4.049 107.691 3.356 Q 108.426 2.663 109.42 2.285 Q 110.414 1.907 111.59 1.907 Q 112.78 1.907 113.767 2.285 Q 114.754 2.663 115.482 3.356 Q 116.21 4.049 116.623 4.973 Q 117.036 5.897 117.036 7.003 Q 117.036 8.109 116.623 9.04 Q 116.21 9.971 115.482 10.657 Q 114.754 11.343 113.767 11.721 Q 112.78 12.099 111.59 12.099 Z M 111.59 9.803 Q 112.15 9.803 112.633 9.607 Q 113.116 9.411 113.473 9.04 Q 113.83 8.669 114.033 8.151 Q 114.236 7.633 114.236 7.003 Q 114.236 6.359 114.033 5.848 Q 113.83 5.337 113.473 4.966 Q 113.116 4.595 112.633 4.399 Q 112.15 4.203 111.59 4.203 Q 111.03 4.203 110.547 4.399 Q 110.064 4.595 109.707 4.966 Q 109.35 5.337 109.147 5.848 Q 108.944 6.359 108.944 7.003 Q 108.944 7.633 109.147 8.151 Q 109.35 8.669 109.707 9.04 Q 110.064 9.411 110.547 9.607 Q 111.03 9.803 111.59 9.803 Z M 118.493 11.903 L 118.493 2.103 L 120.775 2.103 L 124.835 8.767 L 123.631 8.767 L 127.579 2.103 L 129.861 2.103 L 129.889 11.903 L 127.341 11.903 L 127.313 5.981 L 127.747 5.981 L 124.793 10.937 L 123.561 10.937 L 120.523 5.981 L 121.055 5.981 L 121.055 11.903 Z"
        transform="matrix(0.9852620363235475, 0, 0, 0.9852620363235475, -13.990833282470703, 5.429704189300537)"
        style="fill: rgb(255, 255, 255); text-transform: uppercase;" />
    <path
        d="M 56.361 24.699 Q 55.199 24.699 54.212 24.328 Q 53.225 23.957 52.504 23.271 Q 51.783 22.585 51.377 21.654 Q 50.971 20.723 50.971 19.603 Q 50.971 18.483 51.377 17.552 Q 51.783 16.621 52.504 15.935 Q 53.225 15.249 54.212 14.878 Q 55.199 14.507 56.361 14.507 Q 57.719 14.507 58.79 14.983 Q 59.861 15.459 60.575 16.355 L 58.811 17.951 Q 58.335 17.391 57.768 17.097 Q 57.201 16.803 56.501 16.803 Q 55.899 16.803 55.395 16.999 Q 54.891 17.195 54.534 17.566 Q 54.177 17.937 53.974 18.455 Q 53.771 18.973 53.771 19.603 Q 53.771 20.233 53.974 20.751 Q 54.177 21.269 54.534 21.64 Q 54.891 22.011 55.395 22.207 Q 55.899 22.403 56.501 22.403 Q 57.201 22.403 57.768 22.109 Q 58.335 21.815 58.811 21.255 L 60.575 22.851 Q 59.861 23.733 58.79 24.216 Q 57.719 24.699 56.361 24.699 Z M 66.538 24.699 Q 65.362 24.699 64.368 24.321 Q 63.374 23.943 62.639 23.25 Q 61.904 22.557 61.498 21.633 Q 61.092 20.709 61.092 19.603 Q 61.092 18.497 61.498 17.573 Q 61.904 16.649 62.639 15.956 Q 63.374 15.263 64.368 14.885 Q 65.362 14.507 66.538 14.507 Q 67.728 14.507 68.715 14.885 Q 69.702 15.263 70.43 15.956 Q 71.158 16.649 71.571 17.573 Q 71.984 18.497 71.984 19.603 Q 71.984 20.709 71.571 21.64 Q 71.158 22.571 70.43 23.257 Q 69.702 23.943 68.715 24.321 Q 67.728 24.699 66.538 24.699 Z M 66.538 22.403 Q 67.098 22.403 67.581 22.207 Q 68.064 22.011 68.421 21.64 Q 68.778 21.269 68.981 20.751 Q 69.184 20.233 69.184 19.603 Q 69.184 18.959 68.981 18.448 Q 68.778 17.937 68.421 17.566 Q 68.064 17.195 67.581 16.999 Q 67.098 16.803 66.538 16.803 Q 65.978 16.803 65.495 16.999 Q 65.012 17.195 64.655 17.566 Q 64.298 17.937 64.095 18.448 Q 63.892 18.959 63.892 19.603 Q 63.892 20.233 64.095 20.751 Q 64.298 21.269 64.655 21.64 Q 65.012 22.011 65.495 22.207 Q 65.978 22.403 66.538 22.403 Z M 73.44 24.503 L 73.44 14.703 L 75.722 14.703 L 79.782 21.367 L 78.578 21.367 L 82.526 14.703 L 84.808 14.703 L 84.836 24.503 L 82.288 24.503 L 82.26 18.581 L 82.694 18.581 L 79.74 23.537 L 78.508 23.537 L 75.47 18.581 L 76.002 18.581 L 76.002 24.503 Z M 86.796 24.503 L 86.796 14.703 L 89.078 14.703 L 93.138 21.367 L 91.934 21.367 L 95.882 14.703 L 98.164 14.703 L 98.192 24.503 L 95.644 24.503 L 95.616 18.581 L 96.05 18.581 L 93.096 23.537 L 91.864 23.537 L 88.826 18.581 L 89.358 18.581 L 89.358 24.503 Z M 102.701 18.497 L 107.251 18.497 L 107.251 20.569 L 102.701 20.569 Z M 102.897 22.361 L 108.021 22.361 L 108.021 24.503 L 100.153 24.503 L 100.153 14.703 L 107.839 14.703 L 107.839 16.845 L 102.897 16.845 Z M 109.56 24.503 L 109.56 14.703 L 114.04 14.703 Q 115.384 14.703 116.357 15.137 Q 117.33 15.571 117.862 16.39 Q 118.394 17.209 118.394 18.329 Q 118.394 19.435 117.862 20.24 Q 117.33 21.045 116.357 21.472 Q 115.384 21.899 114.04 21.899 L 111.1 21.899 L 112.332 20.737 L 112.332 24.503 Z M 115.622 24.503 L 113.186 20.933 L 116.14 20.933 L 118.59 24.503 Z M 112.332 21.031 L 111.1 19.757 L 113.872 19.757 Q 114.74 19.757 115.167 19.379 Q 115.594 19.001 115.594 18.329 Q 115.594 17.643 115.167 17.265 Q 114.74 16.887 113.872 16.887 L 111.1 16.887 L 112.332 15.613 Z M 124.807 24.699 Q 123.645 24.699 122.658 24.328 Q 121.671 23.957 120.95 23.271 Q 120.229 22.585 119.823 21.654 Q 119.417 20.723 119.417 19.603 Q 119.417 18.483 119.823 17.552 Q 120.229 16.621 120.95 15.935 Q 121.671 15.249 122.658 14.878 Q 123.645 14.507 124.807 14.507 Q 126.165 14.507 127.236 14.983 Q 128.307 15.459 129.021 16.355 L 127.257 17.951 Q 126.781 17.391 126.214 17.097 Q 125.647 16.803 124.947 16.803 Q 124.345 16.803 123.841 16.999 Q 123.337 17.195 122.98 17.566 Q 122.623 17.937 122.42 18.455 Q 122.217 18.973 122.217 19.603 Q 122.217 20.233 122.42 20.751 Q 122.623 21.269 122.98 21.64 Q 123.337 22.011 123.841 22.207 Q 124.345 22.403 124.947 22.403 Q 125.647 22.403 126.214 22.109 Q 126.781 21.815 127.257 21.255 L 129.021 22.851 Q 128.307 23.733 127.236 24.216 Q 126.165 24.699 124.807 24.699 Z M 132.8 18.497 L 137.35 18.497 L 137.35 20.569 L 132.8 20.569 Z M 132.996 22.361 L 138.12 22.361 L 138.12 24.503 L 130.252 24.503 L 130.252 14.703 L 137.938 14.703 L 137.938 16.845 L 132.996 16.845 Z"
        transform="matrix(0.9852620363235475, 0, 0, 0.9852620363235475, -13.990833282470703, 5.429704189300537)"
        style="fill: rgb(255, 255, 255); text-transform: uppercase;" />
</svg>
